# xmcd CD database file
#
# Track frame offsets:
#	150
#	13521
#	26944
#	40431
#	53321
#	75846
#	89661
#	103764
#	116005
#	132702
#	148076
#	171406
#	183536
#	205162
#	221445
#
# Disc length: 3142 seconds
#
# Revision: 0
# Processed by: cddbd v1.5.1PL2 Copyright (c) Steve Scherf et al.
# Submitted via: CDex 1.51
#
DISCID=d80c440f
DTITLE=Various Artist - Gettin' Rowdy [CD1]
DYEAR=2004
DGENRE=Country
TTITLE0=Hank Williams, Jr./All My Rowdy Friends Are Coming Over Tonight
TTITLE1=John Anderson/Black Sheep
TTITLE2=Mickey Gilley/Don't The Girls All Get Prettier At Closing Time
TTITLE3=The Kentucky Headhunters/Dumas Walker
TTITLE4=Molly Hatchet/Flirtin' With Disaster
TTITLE5=Dwight Yoakum/Guitars, Caddilacs
TTITLE6=Travis Tritt/Country Club
TTITLE7=Johnny Lee/Hey Bartender
TTITLE8=The Charlie Daniels Band/Drinkin' My Baby Goodbye
TTITLE9=Georgia Satellites/Keep Your Hands To Yourself
TTITLE10=Lynyrd Skynyrd/Saturday Night Special
TTITLE11=Travis Tritt/The Whisky Ain't Workin'
TTITLE12=The Allman Brothers Band/Ramblin' Man
TTITLE13=Waylon Jennings/I Ain't Living Long Like This
TTITLE14=Johnny Paycheck/I'm the Only Hell (Mama Ever Raised)
EXTD=YEAR: 2004
EXTT0=
EXTT1=
EXTT2=
EXTT3=
EXTT4=
EXTT5=
EXTT6=
EXTT7=
EXTT8=
EXTT9=
EXTT10=
EXTT11=
EXTT12=
EXTT13=
EXTT14=
PLAYORDER=
